<?xml version="1.0" encoding="utf-8"?>
<!-- Svg Vector Icons : http://www.onlinewebfonts.com/icon -->
<!DOCTYPE svg PUBLIC "-//W3C//DTD SVG 1.1//EN" "http://www.w3.org/Graphics/SVG/1.1/DTD/svg11.dtd">
<svg version="1.1" xmlns="http://www.w3.org/2000/svg" xmlns:xlink="http://www.w3.org/1999/xlink" x="0px" y="0px"
  viewBox="0 0 1000 1000" enable-background="new 0 0 1000 1000" xml:space="preserve">
  <metadata> Svg Vector Icons : http://www.onlinewebfonts.com/icon </metadata>
  <g>
    <path
      d="M962.8,644.2c-15,0-27.2,12.2-27.2,27.2v136.1c0,30-24.4,54.4-54.4,54.4H118.9c-30,0-54.4-24.4-54.4-54.4V671.4c0-15-12.2-27.2-27.2-27.2c-15,0-27.2,12.2-27.2,27.2v136.1c0,60.1,48.8,108.9,108.9,108.9h762.2c60.1,0,108.9-48.8,108.9-108.9V671.4C990,656.4,977.8,644.2,962.8,644.2z" />
    <path
      d="M361.5,672.2c5.9,6,13.7,8.9,21.5,8.9c7.8,0,15.6-3,21.5-8.9l536.6-536.6c11.9-11.9,11.9-31.1,0-43.1c-11.9-11.9-31.1-11.9-43,0L383,607.6L101.8,326.4c-11.9-11.9-31.1-11.9-43,0c-11.9,11.9-11.9,31.1,0,43.1L361.5,672.2z" />
  </g>
</svg>